<svg xmlns="http://www.w3.org/2000/svg" xmlns:xlink="http://www.w3.org/1999/xlink" viewBox="0 0 404.83 404.82"><defs><style>.cls-1{fill:none;}.cls-2{clip-path:url(#clip-path);}</style><clipPath id="clip-path" transform="translate(-112.08 -112.53)"><rect class="cls-1" width="629" height="630.08"/></clipPath></defs><title>Asset 4</title><g id="Layer_2" data-name="Layer 2"><g id="Layer_1-2" data-name="Layer 1"><g class="cls-2"><path d="M516.92,112.76v404.6H112.32c-.06-1.37-.17-2.6-.17-3.83q0-198.54-.07-397.07c0-3,.73-3.93,3.84-3.93q198.7.12,397.41.07C514.46,112.6,515.59,112.7,516.92,112.76Zm-10.63,10.53H122.94V506.74h4.77q186.27,0,372.54,0c6.85,0,6,.86,6-6.12q0-186.44,0-372.88Z" transform="translate(-112.08 -112.53)"/><path d="M417.65,181.62v42.9H407.59V163.9c3.38,0,6.78-.12,10.16.09.71,0,1.46,1.24,2,2,5.57,8.52,11.1,17.07,16.67,25.6.17.25.55.37,1.09.72,4.49-6.95,9-13.84,13.42-20.77,1.35-2.1,2.52-4.32,3.95-6.37a3.3,3.3,0,0,1,2.22-1.29c3.07-.14,6.16-.06,9.45-.06v60.91a65.71,65.71,0,0,1-8.2-.14c-.7-.09-1.68-1.9-1.69-2.92-.12-12.22-.09-24.45-.09-36.67V180.7c-3.13,4.59-5.79,8.42-8.37,12.32-2.14,3.24-4.08,6.62-6.29,9.81s-8.19,2.36-10.18-.87c-3.26-5.26-6.88-10.29-10.3-15.45-1.1-1.65-2.07-3.38-3.1-5.07Z" transform="translate(-112.08 -112.53)"/><path d="M416.49,404.73c11.28,0,22.33-.47,33.32.18,6.42.38,11.31,4.35,13.33,10.87s-1.1,13.42-8,17.48a67.26,67.26,0,0,1,6.92,4.3,10.63,10.63,0,0,1,3.49,4.41c3.85,10.94-1,19.85-12.41,22.29a69.64,69.64,0,0,1-13,1.09c-7.8.17-15.6,0-23.63,0Zm9.95,33.5c0,5.84-.07,10.77.07,15.69,0,.68,1.11,1.9,1.69,1.89,7.33-.07,14.7,0,22-.67,4.61-.44,6.44-3.47,6.36-8.17-.06-4-2.42-7.14-6.61-7.52C442.32,438.77,434.65,438.63,426.44,438.23ZM435.73,413l0,.25c-2.18,0-4.37.06-6.55,0-1.83-.07-2.8.5-2.77,2.51.07,4.14-.06,8.28.12,12.41,0,.79,1.17,2.18,1.78,2.17,6-.05,11.95,0,17.86-.66,4.39-.46,7.79-4.73,7.62-8.43-.18-3.95-3-6.68-8.12-7.38C442.37,413.38,439,413.25,435.73,413Z" transform="translate(-112.08 -112.53)"/><path d="M202.29,284.4h9.62v60.78h-9.62c0-7.29-.17-14.52.07-21.73.11-3.3-.81-4.42-4.21-4.31-7.61.24-15.22.14-22.83,0-2.62,0-3.66.75-3.59,3.56.18,7.36.06,14.73.06,22.39h-9.9V284.51h9.85v25.06c1.35.13,2.35.31,3.35.32,8,0,15.91-.07,23.87.05,2.51,0,3.46-.67,3.38-3.32-.17-6.34-.05-12.68-.05-19Z" transform="translate(-112.08 -112.53)"/><path d="M300.18,224.78c-3.38,0-6.35.09-9.29-.08-.64,0-1.45-.95-1.77-1.65-1.74-3.75-3.22-7.62-5.08-11.3a4.2,4.2,0,0,0-3.07-1.93c-8.18-.16-16.36-.14-24.54,0a3.81,3.81,0,0,0-2.74,1.82c-1.8,3.68-3.26,7.54-5,11.27a3.28,3.28,0,0,1-2.06,1.78c-2.82.21-5.67.09-9.16.09,1-2.58,1.67-4.58,2.53-6.5,3.94-8.9,8-17.75,11.89-26.66,3.63-8.28,7.22-16.58,10.63-25,1-2.37,2.21-3.58,4.83-3.2a11.49,11.49,0,0,0,3.1,0c2.41-.3,3.75.62,4.7,2.94,3.09,7.51,6.35,14.95,9.64,22.38,4.93,11.1,9.95,22.16,14.9,33.26A14.25,14.25,0,0,1,300.18,224.78ZM268.8,175.19c-3.82,9-7.23,17-10.79,25.4h21.5C276,192.18,272.57,184.12,268.8,175.19Z" transform="translate(-112.08 -112.53)"/><path d="M326.85,404.21h9.83c0,1.32,0,2.53,0,3.75.12,11.4-.22,22.83.5,34.19a15.85,15.85,0,0,0,25.05,12.08c4.28-2.94,6.44-7.86,6.38-13.5-.11-11.06,0-22.12,0-33.18v-3.27h10.2V416c0,7.84.05,15.67,0,23.51a31.79,31.79,0,0,1-5.55,17.81,18.55,18.55,0,0,1-12.12,7.85c-13.35,2.43-23.52,1.35-30.69-10.18-2.67-4.29-3.51-10.19-3.77-15.42-.55-11.15-.18-22.35-.17-33.53A10.16,10.16,0,0,1,326.85,404.21Z" transform="translate(-112.08 -112.53)"/><path d="M161.83,224.54V163.83c6.48,0,12.77-.12,19.06,0,4.34.11,8.8,0,13,1a19.39,19.39,0,0,1,14.89,16.93c.89,11.92-5.1,17.76-12.58,21.23-3.28,1.53-7.39,1.42-11.14,1.74-4.21.35-8.45.34-12.68.49-.19,4.33-.41,8.66-.57,13-.07,2,0,4.09,0,6.33Zm10-40.2c0,3,.09,6,0,9-.08,2,.72,2.68,2.62,2.64,3.57-.07,7.16.17,10.72-.06,5.57-.35,11.92-3.08,12.92-9.59.76-5-1.2-10.62-6-11.59-6.13-1.22-12.53-1-18.82-1.28-.43,0-1.27,1.44-1.32,2.25C171.7,178.57,171.8,181.46,171.8,184.34Z" transform="translate(-112.08 -112.53)"/><path d="M465.32,290.81l-5.32,7c-5.08-1.74-9.88-3.95-14.93-4.9-2.85-.53-6.21.7-9.13,1.72s-3.55,3.65-3.28,6.53a5.89,5.89,0,0,0,4.36,5.56c5.69,1.78,11.39,3.5,17.06,5.35,12.58,4.1,15.69,13.92,10.41,25.34-2.34,5.07-7.76,7.58-13.18,8.47-11,1.8-20.9-1.34-29.74-8a12,12,0,0,1-1.38-1.46l5.48-6.37c5.22,2.3,9.8,5.07,14.77,6.25,3.67.88,7.88,0,11.75-.68,3.14-.55,4.16-3.27,4.3-6.28s-.77-5.69-4.07-6.73q-7.85-2.48-15.73-4.88c-5.78-1.76-10.81-4.4-13.28-10.42-2.2-5.39-.73-14.05,4.66-18.77,8.44-7.38,23.86-6.11,32-.68C461.61,288.86,463.27,289.65,465.32,290.81Z" transform="translate(-112.08 -112.53)"/><path d="M210.73,448.61l6.08,6.75c-8.61,12.67-30.76,14.34-43.21,4.58-14.65-11.49-15.66-34.25-3.22-47.51,11.31-12.06,35.33-12.4,46.35.33-2.13,2.44-4.27,4.89-6.55,7.52-5-5.21-10.92-7.91-17.69-7.61A20,20,0,0,0,180,417.53c-5.54,4.74-7.19,10.76-7.18,17.5a22.8,22.8,0,0,0,8.08,17.89C187.81,459,201.87,457.38,210.73,448.61Z" transform="translate(-112.08 -112.53)"/><path d="M301.57,345.2V284.58h10.1v51.14h29v9.48Z" transform="translate(-112.08 -112.53)"/><path d="M346.82,215.34h29.11v9.24H337V164.14h9.83Z" transform="translate(-112.08 -112.53)"/><path d="M363.61,284.52a8.16,8.16,0,0,1,1.42-.26c2.64,0,5.28,0,8.54,0v4.12c0,14.4.08,28.79-.08,43.19,0,3.24.73,4.44,4.17,4.31,7.25-.25,14.51-.08,21.77-.06,1.12,0,2.24.11,3.53.17v9.25H363.61Z" transform="translate(-112.08 -112.53)"/><path d="M252.32,404.23h9.53v51.56h29v9.39H252.32Z" transform="translate(-112.08 -112.53)"/><path d="M252.27,284.37h9.41v60.78h-9.41Z" transform="translate(-112.08 -112.53)"/></g></g></g></svg>